<svg>
	<symbol id="consultation" viewBox="0 0 93 62" fill="none" xmlns="http://www.w3.org/2000/svg">
		<!-- <path d="M24.9762 0.000173113C24.9762 0.000173113 5.81506 -1.09611 0 18.6846V34.7475C0 34.7475 0.619638 36.8924 2.90753 38.227C2.85987 38.7037 2.85987 39.228 2.85987 39.7523C3.14585 45.3767 7.14967 49.8572 11.5825 50.1908C11.8208 51.1441 12.6787 51.8591 13.6797 51.8114C14.8236 51.7637 15.7293 50.7628 15.6816 49.6188L14.6806 27.8839C14.633 26.7399 13.632 25.8343 12.4881 25.882C11.3441 25.9296 10.4385 26.9306 10.4862 28.0745V28.4082C8.19828 28.7895 6.14871 30.3148 4.71878 32.4597C4.48046 31.5064 -2.71687 3.86099 24.8808 4.14698C52.4785 3.86099 45.2812 31.5064 45.0429 32.4597C43.613 30.3148 41.5634 28.8372 39.2755 28.4082V28.0745C39.3232 26.9306 38.4652 25.9296 37.2736 25.882C36.1296 25.8343 35.1287 26.7399 35.081 27.8839L34.0801 49.6188C34.0324 50.7628 34.938 51.7637 36.082 51.8114C37.0829 51.8591 37.9886 51.1441 38.2269 50.1908C40.2288 50.0478 42.1354 49.0469 43.6606 47.4739C43.613 52.9554 41.9447 57.5311 34.9857 57.3882C35.3194 58.4844 35.4147 59.6284 35.1764 60.7723C51.1439 62.0593 48.999 46.187 49.9047 34.7952C49.9047 34.7475 49.9523 34.6999 49.9523 34.6999V18.6846C43.9943 -1.04845 24.9762 0.000173113 24.9762 0.000173113ZM28.5987 54.576C25.8818 54.576 23.6892 56.7685 23.6892 59.4854C23.6892 62.2023 25.8818 64.3948 28.5987 64.3948C31.3155 64.3948 33.5081 62.2023 33.5081 59.4854C33.5081 56.7685 31.3155 54.576 28.5987 54.576Z" fill="#D9D9D9" /> -->
		<defs>
			<linearGradient id="paint0_linear_112_238" x1="25.0258" y1="5.15761" x2="21.8517" y2="64.2269" gradientUnits="userSpaceOnUse">
				<stop stop-color="#FFE66A" />
				<stop offset="1" stop-color="#F2AF4B" />
			</linearGradient>
		</defs>
	</symbol>
	<symbol id="diagnostics" viewBox="0 0 126 62" fill="none" xmlns="http://www.w3.org/2000/svg">
		<path d="M117.106 23.5581C120.664 20.2791 122.339 15.2558 121.222 10.2326C120.455 6.74419 118.432 3.88372 115.711 2L113.548 2.48837L116.687 16.1628L109.641 22.4419L100.571 19.8605L97.5013 6.18605L95.3385 6.67442C93.7339 9.53488 93.1757 13.0233 94.0129 16.4419C95.199 21.4651 98.8967 25.2326 103.501 26.6977L111.664 62L125.269 58.8605L117.106 23.5581ZM59.3385 53.4186C53.8269 53.4186 49.3618 48.9535 49.3618 43.4419V46.9302C49.3618 49.1628 50.0594 51.186 51.3153 52.8605V55.0233C51.3153 56.5581 52.5711 57.7442 54.0362 57.7442H65.6874C66.4548 57.7442 67.1525 57.3953 67.6408 56.907H103.99C104.478 57.3953 105.176 57.7442 105.943 57.7442H108.106L107.129 53.4186H59.3385ZM49.3618 41.7674C49.3618 47.2791 53.8269 51.7442 59.3385 51.7442H106.711L101.478 29C98.9664 28.2326 96.9432 26.6977 95.3385 24.7442C81.2455 24.814 62.6874 24.814 60.4548 24.7442C56.0594 24.5349 59.5478 20.9767 62.5478 16.8605C65.6874 12.6047 68.4083 12.8837 68.4083 12.8837C68.4083 12.8837 81.9432 12.8837 91.1525 12.8837C91.1525 12.2558 91.2222 11.6279 91.292 11H68.5478C64.5013 11 60.2455 16.9302 56.8966 21.814L52.8501 26.0698C52.292 25.5814 51.5943 25.1628 50.8966 24.814C47.6176 23.2093 44.199 23.4186 43.2222 25.3023C42.3152 27.186 44.2687 30.0465 47.5478 31.6512C48.1757 31.9302 48.8036 32.2093 49.4315 32.3488V41.7674H49.3618ZM73.2222 38H97.6408C101.339 38 104.269 40.093 104.269 42.7442C104.269 45.3256 101.269 47.4884 97.6408 47.4884H73.2222C69.5246 47.4884 66.5943 45.3953 66.5943 42.7442C66.5943 40.093 69.5246 38 73.2222 38ZM51.385 35C52.292 33.1163 55.7106 32.907 59.0594 34.5116C62.3385 36.1163 64.292 38.9767 63.385 40.8605C62.4781 42.7442 59.0595 42.9535 55.7106 41.3488C52.3618 39.7442 50.478 36.8837 51.385 35Z" fill="#D9D9D9" />
		<!-- <circle cx="15" cy="15" r="14.5" stroke="#D9D9D9" /> -->
	</symbol>
	<symbol id="assessment" viewBox="0 0 107 54" fill="none" xmlns="http://www.w3.org/2000/svg">
		<g clip-path="url(#clip0_112_224)">
			<path d="M57.8884 9H48.5949V12.0978H57.9427V9H57.8884ZM85.6058 17.587C76.9645 17.587 69.9536 24.5978 69.9536 33.2391C69.9536 41.8804 76.9645 48.8913 85.6058 48.8913C94.2471 48.8913 101.258 41.8804 101.258 33.2391C101.258 24.5978 94.2471 17.587 85.6058 17.587ZM85.6058 44.3804C79.4645 44.3804 74.4645 39.3804 74.4645 33.2391C74.4645 27.0978 79.4645 22.0978 85.6058 22.0978C91.7471 22.0978 96.7471 27.0978 96.7471 33.2391C96.7471 39.3804 91.7471 44.3804 85.6058 44.3804ZM103.214 13.4022C99.6275 13.4022 50.0079 13.3478 46.3123 13.3478C44.1384 13.3478 43.2688 14.163 43.2688 16.337C43.2688 27.9674 43.2688 39.5978 43.2688 51.2283C43.2688 53.1848 44.084 54 46.0949 54C55.7688 54 65.3884 54 75.0623 54C84.5188 54 93.9753 54 103.486 54C105.986 54 106.638 53.3478 106.638 50.7935C106.638 39.4348 106.638 28.0761 106.638 16.7717C106.638 14.0543 105.932 13.4022 103.214 13.4022ZM56.5297 21.9891H49.8449C48.6492 21.9891 47.671 21.0652 47.671 19.8696C47.671 18.6739 48.6492 17.75 49.8449 17.75H56.584C57.7797 17.75 58.7579 18.6739 58.7579 19.8696C58.7036 21.0652 57.7253 21.9891 56.5297 21.9891ZM85.7688 51.1196C75.9862 51.1739 68.1058 43.2935 68.0514 33.4565C67.9971 23.4565 76.4753 15.4674 85.6601 15.8478C94.8449 15.413 103.378 23.3478 103.378 33.4022C103.378 43.0761 95.7145 51.0652 85.7688 51.1196Z" fill="#D9D9D9" />
			<path d="M77.3937 30.75C76.8287 33.024 77.3937 36.75 77.3937 36.75C77.3937 36.75 78.5328 35.3756 79.2687 34.5C81.006 32.4327 81.6545 30.9298 83.7687 29.25C85.3616 27.9843 86.5113 27.6501 88.2687 26.625C87.5364 25.8927 86.3937 24.75 86.3937 24.75C86.3937 24.75 81.2452 24.5341 79.2687 26.625C78.0531 27.9109 77.8203 29.0327 77.3937 30.75Z" fill="#D9D9D9" />
			<path d="M86.3937 24.75C86.3937 24.75 87.5364 25.8927 88.2687 26.625C88.708 25.8927 89.3937 24.75 89.3937 24.75H86.3937Z" fill="#D9D9D9" />
		</g>
		<!-- <circle cx="15" cy="15" r="14.5" stroke="#D9D9D9" /> -->
		<defs>
			<clipPath id="clip0_112_224">
				<rect width="63.3696" height="45" fill="white" transform="translate(43.2688 9)" />
			</clipPath>
		</defs>
	</symbol>
	<symbol id="selection" viewBox="0 0 128 59" fill="none" xmlns="http://www.w3.org/2000/svg">
		<path d="M105.52 25.9851C105.052 26.1855 104.651 26.4528 104.317 26.787L102.112 24.3145C100.241 21.3074 97.7013 18.2335 95.6298 18.3003H76.7186C74.4466 18.3003 72.1078 21.5747 70.2367 24.3145L68.0315 26.6533C67.6974 26.386 67.3633 26.1855 66.9623 25.9851C65.1581 25.1164 63.2202 25.25 62.7524 26.2524C62.2178 27.3215 63.287 28.8585 65.1581 29.7272C65.4922 29.8608 65.8263 29.9945 66.1604 30.1281V35.3404C66.1604 38.4143 68.6329 40.8868 71.7068 40.8868H100.708C103.782 40.8868 106.255 38.4143 106.255 35.3404V30.195C106.656 30.1281 106.99 29.9277 107.391 29.794C109.195 28.9253 110.331 27.3215 109.796 26.3192C109.262 25.25 107.391 25.1164 105.52 25.9851ZM73.3774 21.5079C75.1148 19.169 76.585 19.3027 76.585 19.3027C76.585 19.3027 92.6227 19.3027 93.7587 19.3027C95.563 19.3027 97.3004 19.3027 98.8373 21.3742C100.842 24.0472 102.646 25.8514 99.7729 25.8514C95.2957 25.8514 74.1125 25.9182 72.2414 25.8514C69.8358 25.7846 71.7068 23.8467 73.3774 21.5079ZM73.8452 34.8726C73.3106 35.9418 71.4395 36.0755 69.6353 35.1399C67.831 34.2712 66.695 32.6675 67.2296 31.6651C67.7642 30.5959 69.6353 30.4623 71.4395 31.3978C73.3106 32.2665 74.3798 33.8035 73.8452 34.8726ZM92.8232 38.548H79.3247C77.32 38.548 75.6494 37.3451 75.6494 35.9418C75.6494 34.4717 77.32 33.3357 79.3247 33.3357H92.8232C94.8279 33.3357 96.4985 34.5385 96.4985 35.9418C96.5653 37.3451 94.8947 38.548 92.8232 38.548ZM102.513 35.1399C100.708 36.0086 98.7705 35.875 98.3027 34.8726C97.7681 33.8035 98.9042 32.2665 100.708 31.3978C102.513 30.5291 104.451 30.6627 104.918 31.6651C105.386 32.6675 104.317 34.2712 102.513 35.1399ZM100.708 41.8223H71.64C68.5661 41.8223 66.0936 39.3498 66.0936 36.2759V38.2138C66.0936 39.4167 66.4946 40.5527 67.1628 41.4882V42.691C67.1628 43.5597 67.831 44.228 68.6997 44.228H75.1148C75.5158 44.228 75.9167 44.0275 76.184 43.7602H96.298C96.5653 44.0275 96.9663 44.228 97.3672 44.228H103.782C104.651 44.228 105.319 43.5597 105.319 42.691V41.0873C105.854 40.2186 106.121 39.283 106.121 38.2138V36.2759C106.188 39.3498 103.715 41.8223 100.708 41.8223ZM82.5323 54.0511C78.5229 53.9174 72.9765 53.7838 70.1031 53.6502C63.8216 53.3829 61.9505 49.4403 60.0795 48.1038C58.2084 46.7673 58.4757 44.2948 60.8814 46.0322C63.287 47.7697 67.5637 50.6431 69.8358 50.9104C72.1078 51.1777 73.9788 49.7744 70.504 47.5692C65.8931 44.6958 62.4183 41.4882 59.8122 37.8797C57.8075 35.1399 53.7312 32.5338 46.982 34.4049C45.445 34.8726 44.0417 35.1399 42.6384 35.3404V46.2327C43.2398 46.1659 43.8413 46.0991 44.5763 46.0322C47.5834 45.7649 52.1942 51.3113 55.8696 54.5189C60.6809 58.6619 60.9482 59.2634 69.1675 58.7288C70.7713 58.5951 71.9073 58.9292 75.3821 58.7956C80.0598 58.5951 80.7281 57.7932 82.3318 57.7932C85.0048 57.7932 86.5417 54.1847 82.5323 54.0511ZM126.703 18.3671C123.696 18.434 119.419 12.6871 115.811 9.27909C111.267 4.86871 110.999 4.2673 102.78 4.40094C101.176 4.40094 98.8373 4 95.2957 4C90.618 4 90.7516 4.40094 89.1479 4.33412C86.4749 4.13365 84.7375 7.67531 88.7469 8.00943C92.7564 8.34355 98.7037 9.14544 101.51 9.41274C107.792 10.0142 109.462 14.0236 111.267 15.4269C113.071 16.8302 112.67 19.3695 110.331 17.4316C107.992 15.5605 103.916 12.4866 101.644 12.0857C99.3719 11.6847 97.434 13.0212 100.775 15.3601C105.252 18.5008 108.527 21.842 110.932 25.5841C112.737 28.4575 116.746 31.2642 123.562 29.7272C125.032 29.3931 126.369 29.1926 127.638 29.059V18.3003C127.371 18.3003 127.037 18.3671 126.703 18.3671Z" fill="#D9D9D9" />
		<!-- <circle cx="15" cy="15" r="14.5" stroke="#D9D9D9" /> -->
	</symbol>
	<symbol id="driving" viewBox="0 0 128 64" fill="none" xmlns="http://www.w3.org/2000/svg">
		<!-- <circle cx="15" cy="15" r="14.5" stroke="#D9D9D9" /> -->
		<path d="M101.326 34.1426C100.821 34.3986 100.379 34.6546 100 34.9746L97.6018 32.2867C95.645 29.0228 92.9306 25.695 90.6582 25.759H70.3956C67.9969 25.759 65.4719 29.3428 63.452 32.2867L61.0533 34.8466C60.6746 34.5906 60.2958 34.3346 59.854 34.0786C57.8971 33.1186 55.8772 33.2466 55.3091 34.3986C54.741 35.5505 55.9403 37.2144 57.8971 38.2384C58.2759 38.4304 58.6546 38.5584 59.0334 38.6864V44.3181C59.0334 47.646 61.6845 50.3338 64.967 50.3338H96.1499C99.4324 50.3338 102.084 47.646 102.084 44.3181V38.6864C102.462 38.5584 102.904 38.4304 103.346 38.2384C105.303 37.2784 106.439 35.5505 105.934 34.3986C105.303 33.3106 103.283 33.1186 101.326 34.1426ZM66.7975 29.2788C68.6281 26.7189 70.2693 26.9109 70.2693 26.9109C70.2693 26.9109 87.4389 26.9109 88.7014 26.9109C90.5951 26.9109 92.4888 26.9109 94.13 29.1508C96.2762 32.0947 98.233 34.0146 95.14 34.0146C90.3426 34.0146 67.555 34.1426 65.5982 34.0146C62.947 33.8866 64.967 31.7747 66.7975 29.2788ZM67.3025 43.8061C66.7344 44.9581 64.7145 45.0861 62.7576 44.1261C60.8008 43.1662 59.6646 41.4382 60.1696 40.2863C60.7377 39.1344 62.7576 39.0064 64.7145 39.9663C66.6713 40.9263 67.8706 42.6542 67.3025 43.8061ZM87.6914 47.774H73.173C70.9637 47.774 69.1962 46.494 69.1962 44.9581C69.1962 43.3582 70.9637 42.1422 73.173 42.1422H87.6914C89.9007 42.1422 91.6682 43.4222 91.6682 44.9581C91.6682 46.494 89.9007 47.774 87.6914 47.774ZM98.0436 44.0621C96.0868 45.0221 94.0669 44.8941 93.4988 43.7421C92.9306 42.5902 94.13 40.9263 96.0868 39.9023C98.0436 38.9424 100.064 39.0704 100.632 40.2223C101.137 41.4382 100 43.1022 98.0436 44.0621ZM96.0868 51.3578H64.967C61.6845 51.3578 59.0334 48.6699 59.0334 45.3421V47.454C59.0334 48.7979 59.4752 50.0138 60.1696 51.0378V52.3177C60.1696 53.2137 60.9271 53.9817 61.8108 53.9817H68.6912C69.1331 53.9817 69.575 53.7897 69.8275 53.4697H91.4157C91.7313 53.7897 92.11 53.9817 92.5519 53.9817H99.4324C100.316 53.9817 101.074 53.2137 101.074 52.3177V50.5898C101.642 49.6939 101.957 48.6059 101.957 47.454V45.3421C102.02 48.6699 99.3692 51.3578 96.0868 51.3578ZM80.8109 4L43 17.3754V25.759L46.5349 24.479V57.4375H49.6911V23.3911L80.9372 12.3836L111.426 23.1351V62.125H114.582V24.2871L118.938 25.823V17.3754L80.8109 4Z" fill="#D9D9D9" />
		<path d="M112.812 35.9375C105.355 35.9375 99.3125 41.9798 99.3125 49.4375C99.3125 56.8952 105.355 62.9375 112.812 62.9375C120.27 62.9375 126.312 56.8952 126.312 49.4375C126.312 41.9798 120.27 35.9375 112.812 35.9375ZM122.556 44.6472H118.909C118.528 42.6875 117.929 40.9456 117.167 39.5302C119.508 40.5645 121.413 42.3609 122.556 44.6472ZM112.812 38.5504C113.792 38.5504 115.425 40.8367 116.242 44.6472H109.329C110.145 40.8367 111.778 38.5504 112.812 38.5504ZM101.925 49.4375C101.925 48.7298 101.98 47.9677 102.143 47.2601H106.335C106.28 48.0222 106.28 48.7298 106.28 49.4375C106.28 50.1996 106.28 50.9073 106.335 51.6149H102.143C101.98 50.9617 101.925 50.1996 101.925 49.4375ZM103.014 54.2278H106.661C107.042 56.2419 107.641 57.9839 108.403 59.3992C106.062 58.3649 104.157 56.5141 103.014 54.2278ZM106.661 44.6472H103.014C104.157 42.3609 106.062 40.5645 108.403 39.5302C107.641 40.9456 107.042 42.6875 106.661 44.6472ZM112.812 60.3246C111.778 60.3246 110.145 58.0927 109.329 54.2278H116.242C115.425 58.0927 113.792 60.3246 112.812 60.3246ZM116.623 51.6149H108.948C108.893 50.9617 108.893 50.1996 108.893 49.4375C108.893 48.6754 108.893 47.9677 108.948 47.2601H116.623C116.677 47.9677 116.732 48.6754 116.732 49.4375C116.732 50.1996 116.677 50.9617 116.623 51.6149ZM117.167 59.3992C117.929 57.9839 118.528 56.2419 118.909 54.2278H122.556C121.413 56.5141 119.508 58.3649 117.167 59.3992ZM119.236 51.6149C119.29 50.9073 119.345 50.1996 119.345 49.4375C119.345 48.7298 119.29 48.0222 119.236 47.2601H123.482C123.591 47.9677 123.7 48.7298 123.7 49.4375C123.7 50.1996 123.591 50.9617 123.482 51.6149H119.236Z" fill="#D9D9D9" />
	</symbol>
</svg>
